{"title":"Shrek.Forever.After.2010.BRRip.720p.H264.Feel-Free","uid":5969609,"size":1827934639,"categoryP":"video","categoryS":"hd___movies","magnet":"?xt=urn:btih:b9ec3520e3e53978d4e20e1f896df364d39cb1c4&amp;dn=Shrek.Forever.After.2010.BRRip.720p.H264.Feel-Free&amp;tr=udp%3A%2F%2Ftracker.openbittorrent.com%3A80&amp;tr=udp%3A%2F%2Fopen.demonii.com%3A1337&amp;tr=udp%3A%2F%2Ftracker.coppersurfer.tk%3A6969&amp;tr=udp%3A%2F%2Fexodus.desync.com%3A6969","seeders":0,"leechers":0,"uploader":"hiest","files":10,"time":1290234149,"description":"Genre:Animation | Adventure | Comedy | Family | Fantasy\nLanguage.: English\nIMDB:http://www.imdb.com/title/tt0892791/\nSource:1080p.BluRay.x264-REFiNED\n\nGeneral\nComplete name :Shrek.Forever.After.2010.BRRip.720p.H264.Feel-Free\nFormat : MPEG-4\nFormat profile : Base Media / Version 2\nCodec ID : mp42\nFile size : 1.70 GiB\nDuration : 1h 33mn\nOverall bit rate : 2 607 Kbps\nVideo #1\nCodec ID : avc1\nCodec ID/Info : Advanced Video Coding\nDuration : 1h 33mn\nBit rate mode : Variable\nBit rate : 2 044 Kbps\nWidth : 1 280 pixels\nHeight : 544 pixels\nDisplay aspect ratio : 2.35:1\nFrame rate mode : Constant\nFrame rate : 23.976 fps\nResolution : 24 bits\nColorimetry : 4:2:0\nScan type : Progressive\nBits/(Pixel*Frame) : 0.122\nStream size : 1.33 GiB (78%)\nAudio #2\nID : 2\nFormat : AAC\nFormat/Info : Advanced Audio Codec\nFormat version : Version 4\nFormat profile : LC\nFormat settings, SBR : No\nCodec ID : 40\nDuration : 1h 33mn\nBit rate mode : Constant\nBit rate : 559 Kbps\nNominal bit rate : 576 Kbps\nChannel(s) : 6 channels\nChannel positions : Front: L C R, Rear: L R, LFE\nSampling rate : 48.0 KHz\nResolution : 16 bits\nStream size : 373 MiB (21%)\n\nPlot:\nRumpelstiltskin tricks a mid-life crisis burdened Shrek into allowing himself to be erased from existence and cast in a dark alternate timeline where Rumpel rules supreme\n\n\n\n\n\n\n\n================================== &lt;a href=&quot;\nhttp://thepiratebay.se/user/hiest&quot; rel=&quot;nofollow&quot; target=&quot;_NEW&quot;&gt;\nhttp://thepiratebay.se/user/hiest&lt;/a&gt;\n==================================\n","torrent":{"xt":"urn:btih:b9ec3520e3e53978d4e20e1f896df364d39cb1c4","amp;dn":"Shrek.Forever.After.2010.BRRip.720p.H264.Feel-Free","amp;tr":["udp%3A%2F%2Ftracker.openbittorrent.com%3A80","udp%3A%2F%2Fopen.demonii.com%3A1337","udp%3A%2F%2Ftracker.coppersurfer.tk%3A6969","udp%3A%2F%2Fexodus.desync.com%3A6969"],"infoHash":"b9ec3520e3e53978d4e20e1f896df364d39cb1c4","infoHashBuffer":{"type":"Buffer","data":[185,236,53,32,227,229,57,120,212,226,14,31,137,109,243,100,211,156,177,196]},"announce":[],"urlList":[]}}